<?xml version="1.0" encoding="UTF-8" standalone="no"?>
<!DOCTYPE svg PUBLIC "-//W3C//DTD SVG 1.1//EN" "http://www.w3.org/Graphics/SVG/1.1/DTD/svg11.dtd">
<svg width="100%" height="100%" viewBox="0 0 1920 416" version="1.1" xmlns="http://www.w3.org/2000/svg" xmlns:xlink="http://www.w3.org/1999/xlink" xml:space="preserve" xmlns:serif="http://www.serif.com/" style="fill-rule:evenodd;clip-rule:evenodd;stroke-linejoin:round;stroke-miterlimit:2;">
    <g transform="matrix(1.98635,0,0,1.98635,-921.667,-1487.78)">
        <g transform="matrix(1.22289,0,0,1.22289,-39.8288,228.051)">
            <path d="M560.031,597L474,597L474,596.998C473.832,596.999 473.666,597 473.5,597C439.557,597 412,569.443 412,535.5C412,501.557 439.557,474 473.5,474C474.162,474 474.821,474.01 475.482,474.031C481.631,446.557 506.184,426 535.5,426C561.166,426 583.182,441.757 592.392,464.116C554.841,466.245 525,497.415 525,535.5C525,561.644 539.062,584.529 560.031,597Z" style="fill:url(#_Linear1);"/>
        </g>
        <g transform="matrix(1.22289,0,0,1.22289,46.996,198.702)">
            <circle cx="525.5" cy="559.5" r="61.5" style="fill:url(#_Linear2);"/>
        </g>
        <g transform="matrix(7.94689,0,0,7.94689,-5229.28,-3145.87)">
            <g transform="matrix(12,0,0,12,757.229,510.375)">
                <path d="M0.132,-0C0.102,-0 0.087,-0.015 0.087,-0.045L0.087,-0.66C0.087,-0.69 0.102,-0.705 0.132,-0.705L0.325,-0.705C0.439,-0.705 0.527,-0.675 0.589,-0.615C0.651,-0.554 0.682,-0.467 0.682,-0.353C0.682,-0.239 0.651,-0.152 0.589,-0.091C0.527,-0.03 0.439,-0 0.325,-0L0.132,-0ZM0.169,-0.07L0.319,-0.07C0.503,-0.07 0.595,-0.164 0.595,-0.353C0.595,-0.541 0.503,-0.635 0.319,-0.635L0.169,-0.635L0.169,-0.07Z" style="fill:rgb(99,135,165);fill-rule:nonzero;"/>
            </g>
            <g transform="matrix(12,0,0,12,766.133,510.375)">
                <path d="M0.128,0.007C0.101,0.007 0.087,-0.007 0.087,-0.036L0.087,-0.663C0.087,-0.691 0.101,-0.705 0.129,-0.705L0.366,-0.705C0.442,-0.705 0.5,-0.687 0.541,-0.652C0.581,-0.617 0.601,-0.566 0.601,-0.501C0.601,-0.449 0.587,-0.406 0.559,-0.373C0.53,-0.34 0.49,-0.318 0.438,-0.308C0.469,-0.297 0.495,-0.271 0.517,-0.23L0.613,-0.051C0.62,-0.037 0.622,-0.024 0.617,-0.012C0.612,0.001 0.602,0.007 0.585,0.007C0.574,0.007 0.564,0.004 0.557,-0.001C0.55,-0.006 0.543,-0.013 0.538,-0.024L0.429,-0.226C0.414,-0.255 0.396,-0.274 0.376,-0.283C0.356,-0.293 0.33,-0.298 0.297,-0.298L0.169,-0.298L0.169,-0.036C0.169,-0.007 0.155,0.007 0.128,0.007ZM0.169,-0.363L0.354,-0.363C0.465,-0.363 0.52,-0.409 0.52,-0.501C0.52,-0.592 0.465,-0.637 0.354,-0.637L0.169,-0.637L0.169,-0.363Z" style="fill:rgb(99,135,165);fill-rule:nonzero;"/>
            </g>
            <g transform="matrix(12,0,0,12,774.161,510.375)">
                <path d="M0.132,-0C0.102,-0 0.087,-0.015 0.087,-0.045L0.087,-0.66C0.087,-0.69 0.102,-0.705 0.132,-0.705L0.504,-0.705C0.527,-0.705 0.539,-0.694 0.539,-0.671C0.539,-0.648 0.527,-0.636 0.504,-0.636L0.167,-0.636L0.167,-0.392L0.483,-0.392C0.506,-0.392 0.518,-0.381 0.518,-0.358C0.518,-0.335 0.506,-0.323 0.483,-0.323L0.167,-0.323L0.167,-0.069L0.504,-0.069C0.527,-0.069 0.539,-0.058 0.539,-0.035C0.539,-0.012 0.527,-0 0.504,-0L0.132,-0Z" style="fill:rgb(99,135,165);fill-rule:nonzero;"/>
            </g>
            <g transform="matrix(12,0,0,12,780.989,510.375)">
                <path d="M0.072,0.007C0.056,0.007 0.045,0.002 0.039,-0.009C0.033,-0.02 0.034,-0.033 0.041,-0.049L0.316,-0.675C0.327,-0.7 0.343,-0.712 0.365,-0.712C0.375,-0.712 0.384,-0.709 0.393,-0.704C0.401,-0.698 0.408,-0.688 0.413,-0.675L0.689,-0.049C0.696,-0.033 0.697,-0.02 0.692,-0.009C0.687,0.002 0.676,0.007 0.66,0.007C0.648,0.007 0.638,0.004 0.631,-0.003C0.624,-0.009 0.618,-0.018 0.613,-0.03L0.548,-0.18L0.181,-0.18L0.117,-0.03C0.106,-0.005 0.091,0.007 0.072,0.007ZM0.364,-0.609L0.211,-0.249L0.519,-0.249L0.366,-0.609L0.364,-0.609Z" style="fill:rgb(99,135,165);fill-rule:nonzero;"/>
            </g>
            <g transform="matrix(12,0,0,12,789.737,510.375)">
                <path d="M0.127,0.007C0.102,0.007 0.089,-0.006 0.089,-0.033L0.089,-0.672C0.089,-0.699 0.102,-0.712 0.127,-0.712C0.138,-0.712 0.146,-0.71 0.153,-0.706C0.159,-0.701 0.165,-0.694 0.17,-0.684L0.429,-0.196L0.687,-0.684C0.692,-0.694 0.698,-0.701 0.704,-0.706C0.71,-0.71 0.719,-0.712 0.73,-0.712C0.755,-0.712 0.767,-0.699 0.767,-0.672L0.767,-0.033C0.767,-0.006 0.754,0.007 0.729,0.007C0.704,0.007 0.691,-0.006 0.691,-0.033L0.691,-0.551L0.465,-0.126C0.46,-0.117 0.456,-0.111 0.451,-0.108C0.446,-0.104 0.438,-0.102 0.429,-0.102C0.42,-0.102 0.412,-0.104 0.407,-0.108C0.402,-0.112 0.397,-0.118 0.393,-0.126L0.164,-0.55L0.164,-0.033C0.164,-0.006 0.152,0.007 0.127,0.007Z" style="fill:rgb(99,135,165);fill-rule:nonzero;"/>
            </g>
            <g transform="matrix(12,0,0,12,799.997,510.375)">
                <path d="M0.315,0.009C0.267,0.009 0.222,0.003 0.18,-0.009C0.137,-0.02 0.101,-0.037 0.07,-0.06C0.059,-0.067 0.053,-0.076 0.051,-0.086C0.049,-0.096 0.05,-0.105 0.055,-0.114C0.059,-0.123 0.065,-0.129 0.074,-0.132C0.083,-0.135 0.093,-0.132 0.104,-0.125C0.134,-0.103 0.166,-0.087 0.2,-0.078C0.234,-0.069 0.272,-0.064 0.315,-0.064C0.375,-0.064 0.42,-0.075 0.449,-0.098C0.477,-0.12 0.492,-0.149 0.492,-0.186C0.492,-0.215 0.482,-0.239 0.461,-0.256C0.44,-0.273 0.404,-0.287 0.355,-0.297L0.251,-0.318C0.188,-0.331 0.141,-0.353 0.111,-0.384C0.08,-0.414 0.064,-0.454 0.064,-0.505C0.064,-0.547 0.075,-0.584 0.097,-0.615C0.118,-0.646 0.148,-0.671 0.187,-0.688C0.226,-0.705 0.27,-0.714 0.321,-0.714C0.363,-0.714 0.402,-0.708 0.439,-0.697C0.475,-0.685 0.508,-0.667 0.537,-0.644C0.546,-0.637 0.552,-0.628 0.554,-0.619C0.555,-0.609 0.554,-0.6 0.549,-0.592C0.544,-0.584 0.538,-0.579 0.529,-0.577C0.52,-0.574 0.51,-0.577 0.498,-0.584C0.471,-0.605 0.444,-0.619 0.414,-0.628C0.386,-0.637 0.354,-0.641 0.32,-0.641C0.267,-0.641 0.225,-0.629 0.194,-0.605C0.163,-0.58 0.147,-0.548 0.147,-0.508C0.147,-0.476 0.157,-0.451 0.177,-0.432C0.196,-0.413 0.228,-0.4 0.273,-0.391L0.377,-0.369C0.444,-0.355 0.494,-0.334 0.527,-0.306C0.559,-0.277 0.575,-0.239 0.575,-0.19C0.575,-0.151 0.565,-0.116 0.544,-0.086C0.523,-0.056 0.493,-0.033 0.454,-0.016C0.414,0.001 0.368,0.009 0.315,0.009Z" style="fill:rgb(99,135,165);fill-rule:nonzero;"/>
            </g>
            <g transform="matrix(12,0,0,12,807.377,510.375)">
                <path d="M0.392,0.009C0.323,0.009 0.263,-0.006 0.214,-0.035C0.165,-0.064 0.127,-0.106 0.101,-0.16C0.074,-0.214 0.061,-0.278 0.061,-0.353C0.061,-0.427 0.074,-0.491 0.101,-0.545C0.127,-0.599 0.165,-0.641 0.214,-0.67C0.263,-0.699 0.323,-0.714 0.392,-0.714C0.433,-0.714 0.473,-0.708 0.51,-0.696C0.547,-0.684 0.58,-0.667 0.607,-0.645C0.618,-0.637 0.625,-0.628 0.626,-0.617C0.628,-0.606 0.626,-0.597 0.621,-0.589C0.616,-0.58 0.608,-0.575 0.599,-0.573C0.589,-0.57 0.578,-0.573 0.566,-0.582C0.519,-0.62 0.461,-0.639 0.394,-0.639C0.315,-0.639 0.254,-0.614 0.212,-0.564C0.17,-0.514 0.149,-0.444 0.149,-0.353C0.149,-0.262 0.17,-0.191 0.212,-0.141C0.254,-0.091 0.315,-0.066 0.394,-0.066C0.461,-0.066 0.519,-0.085 0.568,-0.124C0.58,-0.132 0.591,-0.135 0.601,-0.133C0.61,-0.131 0.618,-0.126 0.623,-0.118C0.627,-0.11 0.629,-0.101 0.628,-0.091C0.627,-0.081 0.621,-0.072 0.611,-0.064C0.582,-0.04 0.549,-0.022 0.512,-0.01C0.475,0.003 0.435,0.009 0.392,0.009Z" style="fill:rgb(99,135,165);fill-rule:nonzero;"/>
            </g>
            <g transform="matrix(12,0,0,12,815.237,510.375)">
                <path d="M0.072,0.007C0.056,0.007 0.045,0.002 0.039,-0.009C0.033,-0.02 0.034,-0.033 0.041,-0.049L0.316,-0.675C0.327,-0.7 0.343,-0.712 0.365,-0.712C0.375,-0.712 0.384,-0.709 0.393,-0.704C0.401,-0.698 0.408,-0.688 0.413,-0.675L0.689,-0.049C0.696,-0.033 0.697,-0.02 0.692,-0.009C0.687,0.002 0.676,0.007 0.66,0.007C0.648,0.007 0.638,0.004 0.631,-0.003C0.624,-0.009 0.618,-0.018 0.613,-0.03L0.548,-0.18L0.181,-0.18L0.117,-0.03C0.106,-0.005 0.091,0.007 0.072,0.007ZM0.364,-0.609L0.211,-0.249L0.519,-0.249L0.366,-0.609L0.364,-0.609Z" style="fill:rgb(99,135,165);fill-rule:nonzero;"/>
            </g>
            <g transform="matrix(12,0,0,12,823.985,510.375)">
                <path d="M0.128,0.007C0.101,0.007 0.087,-0.007 0.087,-0.036L0.087,-0.663C0.087,-0.691 0.101,-0.705 0.129,-0.705L0.366,-0.705C0.442,-0.705 0.5,-0.687 0.541,-0.65C0.581,-0.613 0.601,-0.561 0.601,-0.493C0.601,-0.426 0.581,-0.374 0.541,-0.337C0.5,-0.3 0.442,-0.281 0.366,-0.281L0.169,-0.281L0.169,-0.036C0.169,-0.007 0.155,0.007 0.128,0.007ZM0.169,-0.35L0.356,-0.35C0.465,-0.35 0.52,-0.398 0.52,-0.493C0.52,-0.589 0.465,-0.637 0.356,-0.637L0.169,-0.637L0.169,-0.35Z" style="fill:rgb(99,135,165);fill-rule:nonzero;"/>
            </g>
            <g transform="matrix(12,0,0,12,831.581,510.375)">
                <path d="M0.132,-0C0.102,-0 0.087,-0.015 0.087,-0.045L0.087,-0.66C0.087,-0.69 0.102,-0.705 0.132,-0.705L0.504,-0.705C0.527,-0.705 0.539,-0.694 0.539,-0.671C0.539,-0.648 0.527,-0.636 0.504,-0.636L0.167,-0.636L0.167,-0.392L0.483,-0.392C0.506,-0.392 0.518,-0.381 0.518,-0.358C0.518,-0.335 0.506,-0.323 0.483,-0.323L0.167,-0.323L0.167,-0.069L0.504,-0.069C0.527,-0.069 0.539,-0.058 0.539,-0.035C0.539,-0.012 0.527,-0 0.504,-0L0.132,-0Z" style="fill:rgb(99,135,165);fill-rule:nonzero;"/>
            </g>
        </g>
        <g transform="matrix(0.317182,0,0,0.317182,545.622,703.021)">
            <path d="M442.363,430.471C444.447,425.919 448.994,423 454,423C459.006,423 463.553,425.919 465.637,430.471L503.417,512.983L593.566,523.416C598.539,523.992 602.72,527.414 604.267,532.175C605.814,536.937 604.443,542.163 600.758,545.552L533.959,606.98L551.894,695.94C552.883,700.848 550.92,705.882 546.87,708.825C542.82,711.767 537.426,712.078 533.064,709.621L454,665.073L374.936,709.621C370.574,712.078 365.18,711.767 361.13,708.825C357.08,705.882 355.117,700.848 356.106,695.94L374.041,606.98L307.242,545.552C303.557,542.163 302.186,536.937 303.733,532.175C305.28,527.414 309.461,523.992 314.434,523.416L404.583,512.983L442.363,430.471Z" style="fill:rgb(255,232,0);"/>
        </g>
    </g>
    <defs>
        <linearGradient id="_Linear1" x1="0" y1="0" x2="1" y2="0" gradientUnits="userSpaceOnUse" gradientTransform="matrix(184.432,-184.432,184.432,184.432,436.321,585.293)"><stop offset="0" style="stop-color:rgb(19,123,255);stop-opacity:1"/><stop offset="0.58" style="stop-color:rgb(66,39,198);stop-opacity:1"/><stop offset="1" style="stop-color:rgb(88,0,171);stop-opacity:1"/></linearGradient>
        <linearGradient id="_Linear2" x1="0" y1="0" x2="1" y2="0" gradientUnits="userSpaceOnUse" gradientTransform="matrix(95.256,-95.256,95.256,95.256,482.871,611.319)"><stop offset="0" style="stop-color:rgb(252,92,125);stop-opacity:1"/><stop offset="1" style="stop-color:rgb(255,127,65);stop-opacity:1"/></linearGradient>
    </defs>
</svg>
